# xmcd
#
# Track frame offsets: 
#        150
#        22224
#        42676
#        67244
#        92055
#        128078
#        146337
#        160966
#        181345
#        204089
#        224464
#
# Disc length: 3267 seconds
#
# Revision: 0
# Processed by: cddbd v1.5.2PL0 Copyright (c) Steve Scherf et al.
# Submitted via: ExactAudioCopy v1.0b4
#
DISCID=a60cc10b
DTITLE=Pete Cornelius - Groundswell
DYEAR=2013
DGENRE=Blues
TTITLE0=Drinking The Blues
TTITLE1=Love And Happiness
TTITLE2=Right Place, Wrong Time
TTITLE3=Cold Water
TTITLE4=Repo Man
TTITLE5=Goodnight My Love
TTITLE6=Been My Gal
TTITLE7=Talkin' Bout New Orleans
TTITLE8=My Soul
TTITLE9=Woman Across The River
TTITLE10=Strong Suit
EXTD=
EXTT0=
EXTT1=
EXTT2=
EXTT3=
EXTT4=
EXTT5=
EXTT6=
EXTT7=
EXTT8=
EXTT9=
EXTT10=
PLAYORDER=
